<mxfile host="app.diagrams.net" modified="2023-11-02T01:37:57.708Z" agent="Mozilla/5.0 (Windows NT 10.0; Win64; x64) AppleWebKit/537.36 (KHTML, like Gecko) Chrome/118.0.0.0 Safari/537.36" etag="PRfsbCbOGnPNVhnFXyPB" version="22.0.8" type="github">
  <diagram name="Page-1" id="vSWNFl7TlQnVErlAqgTq">
    <mxGraphModel dx="2036" dy="869" grid="1" gridSize="10" guides="1" tooltips="1" connect="1" arrows="1" fold="1" page="1" pageScale="1" pageWidth="850" pageHeight="1100" math="0" shadow="0">
      <root>
        <mxCell id="0" />
        <mxCell id="1" parent="0" />
        <mxCell id="ZpY40fTTv7qmMkslIbnW-1" value="&lt;p style=&quot;margin:0px;margin-top:4px;text-align:center;&quot;&gt;&lt;b&gt;User&lt;/b&gt;&lt;/p&gt;&lt;hr size=&quot;1&quot;&gt;&lt;p style=&quot;margin:0px;margin-left:4px;&quot;&gt;- userId: String&lt;/p&gt;&lt;p style=&quot;margin:0px;margin-left:4px;&quot;&gt;- username: String&lt;/p&gt;&lt;p style=&quot;margin:0px;margin-left:4px;&quot;&gt;- email: String&lt;/p&gt;&lt;p style=&quot;margin:0px;margin-left:4px;&quot;&gt;- password: String&lt;/p&gt;&lt;p style=&quot;margin:0px;margin-left:4px;&quot;&gt;- role: String&lt;/p&gt;&lt;p style=&quot;margin:0px;margin-left:4px;&quot;&gt;+ iterator: static int&lt;/p&gt;&lt;hr size=&quot;1&quot;&gt;&lt;p style=&quot;margin:0px;margin-left:4px;&quot;&gt;+ User(name: String, role: String, salary: String)&lt;/p&gt;" style="verticalAlign=top;align=left;overflow=fill;fontSize=12;fontFamily=Helvetica;html=1;whiteSpace=wrap;" parent="1" vertex="1">
          <mxGeometry x="240" y="40" width="160" height="170" as="geometry" />
        </mxCell>
        <mxCell id="ZpY40fTTv7qmMkslIbnW-2" value="&lt;p style=&quot;margin: 4px 0px 0px; text-align: center;&quot;&gt;&lt;b&gt;Auth&lt;/b&gt;&lt;/p&gt;&lt;hr size=&quot;1&quot;&gt;&lt;p style=&quot;margin:0px;margin-left:4px;&quot;&gt;&lt;br&gt;&lt;/p&gt;&lt;hr size=&quot;1&quot;&gt;&lt;p style=&quot;margin:0px;margin-left:4px;&quot;&gt;+ register(username String, password: String, email: String)&lt;/p&gt;&lt;p style=&quot;margin:0px;margin-left:4px;&quot;&gt;+ login(email: String, password: String)&lt;/p&gt;" style="verticalAlign=top;align=left;overflow=fill;fontSize=12;fontFamily=Helvetica;html=1;whiteSpace=wrap;" parent="1" vertex="1">
          <mxGeometry x="20" y="40" width="160" height="140" as="geometry" />
        </mxCell>
        <mxCell id="ZpY40fTTv7qmMkslIbnW-3" value="&lt;p style=&quot;margin:0px;margin-top:4px;text-align:center;&quot;&gt;&lt;b&gt;Transaction&lt;/b&gt;&lt;/p&gt;&lt;hr size=&quot;1&quot;&gt;&lt;p style=&quot;margin:0px;margin-left:4px;&quot;&gt;- id: String&lt;/p&gt;&lt;p style=&quot;margin:0px;margin-left:4px;&quot;&gt;- products: ArrayList&amp;lt;Product&amp;gt;&lt;/p&gt;&lt;p style=&quot;margin:0px;margin-left:4px;&quot;&gt;- worker: Employee&lt;/p&gt;&lt;p style=&quot;margin:0px;margin-left:4px;&quot;&gt;- paymentMethod: String&lt;/p&gt;&lt;p style=&quot;margin:0px;margin-left:4px;&quot;&gt;- dateTransaction: String&lt;/p&gt;&lt;hr size=&quot;1&quot;&gt;&lt;p style=&quot;margin:0px;margin-left:4px;&quot;&gt;+ setter&amp;nbsp;&lt;/p&gt;&lt;p style=&quot;margin:0px;margin-left:4px;&quot;&gt;+ getter&lt;/p&gt;&lt;p style=&quot;margin:0px;margin-left:4px;&quot;&gt;+ addItem(product: Product, quantity: int): void&lt;/p&gt;&lt;p style=&quot;margin:0px;margin-left:4px;&quot;&gt;+ removeItem(product: Product, quantity: int): void&lt;br&gt;&lt;/p&gt;&lt;p style=&quot;margin:0px;margin-left:4px;&quot;&gt;+ printReceipt(): void&lt;/p&gt;" style="verticalAlign=top;align=left;overflow=fill;fontSize=12;fontFamily=Helvetica;html=1;whiteSpace=wrap;" parent="1" vertex="1">
          <mxGeometry x="460" y="340" width="160" height="240" as="geometry" />
        </mxCell>
        <mxCell id="ZpY40fTTv7qmMkslIbnW-4" value="&lt;p style=&quot;margin:0px;margin-top:4px;text-align:center;&quot;&gt;&lt;b&gt;Product&lt;/b&gt;&lt;/p&gt;&lt;hr size=&quot;1&quot;&gt;&lt;p style=&quot;margin:0px;margin-left:4px;&quot;&gt;- idProduct: String&lt;/p&gt;&lt;p style=&quot;margin:0px;margin-left:4px;&quot;&gt;- name: String&lt;/p&gt;&lt;p style=&quot;margin:0px;margin-left:4px;&quot;&gt;- sellPrice: int&lt;/p&gt;&lt;p style=&quot;margin:0px;margin-left:4px;&quot;&gt;- stock: int&lt;/p&gt;&lt;p style=&quot;margin:0px;margin-left:4px;&quot;&gt;- prodPrice: int&lt;/p&gt;&lt;hr size=&quot;1&quot;&gt;&lt;p style=&quot;margin:0px;margin-left:4px;&quot;&gt;+ setter&lt;/p&gt;&lt;p style=&quot;margin:0px;margin-left:4px;&quot;&gt;+ getter&lt;/p&gt;" style="verticalAlign=top;align=left;overflow=fill;fontSize=12;fontFamily=Helvetica;html=1;whiteSpace=wrap;" parent="1" vertex="1">
          <mxGeometry x="250" y="610" width="160" height="160" as="geometry" />
        </mxCell>
        <mxCell id="ZpY40fTTv7qmMkslIbnW-5" value="&lt;p style=&quot;margin:0px;margin-top:4px;text-align:center;&quot;&gt;&lt;b&gt;ProductManagement&lt;/b&gt;&lt;/p&gt;&lt;hr size=&quot;1&quot;&gt;&lt;p style=&quot;margin:0px;margin-left:4px;&quot;&gt;- products: ArrayList&amp;lt;Product&amp;gt;&lt;br&gt;&lt;/p&gt;&lt;hr size=&quot;1&quot;&gt;&lt;p style=&quot;margin:0px;margin-left:4px;&quot;&gt;+ addProduct(product: Product): void&amp;nbsp;&lt;br&gt;+ editProduct(product: Product): void&lt;br&gt;+ delProduct(product: Product): void&lt;br&gt;&lt;/p&gt;" style="verticalAlign=top;align=left;overflow=fill;fontSize=12;fontFamily=Helvetica;html=1;whiteSpace=wrap;" parent="1" vertex="1">
          <mxGeometry x="250" y="400" width="160" height="170" as="geometry" />
        </mxCell>
        <mxCell id="ZpY40fTTv7qmMkslIbnW-6" value="&lt;p style=&quot;margin:0px;margin-top:4px;text-align:center;&quot;&gt;&lt;b&gt;Owner&lt;/b&gt;&lt;/p&gt;&lt;hr size=&quot;1&quot;&gt;&amp;nbsp;- outlets: ArrayList&amp;lt;Outlet&amp;gt;&lt;p style=&quot;margin:0px;margin-left:4px;&quot;&gt;- employees: ArrayList&amp;lt;Employee&amp;gt;&lt;/p&gt;&lt;p style=&quot;margin:0px;margin-left:4px;&quot;&gt;&lt;span style=&quot;background-color: initial;&quot;&gt;- products: ArrayList&amp;lt;Product&amp;gt;&lt;/span&gt;&lt;br&gt;&lt;/p&gt;&lt;hr size=&quot;1&quot;&gt;&lt;p style=&quot;margin:0px;margin-left:4px;&quot;&gt;+ manageTransaction(): void&lt;/p&gt;&lt;p style=&quot;margin:0px;margin-left:4px;&quot;&gt;+ manageOutlet(): void&lt;/p&gt;&lt;p style=&quot;margin:0px;margin-left:4px;&quot;&gt;+ manageEmployees(): void&amp;nbsp;&lt;br&gt;+ manageProducts(): void&lt;br&gt;+ generateReport(): void&lt;br&gt;&lt;/p&gt;" style="verticalAlign=top;align=left;overflow=fill;fontSize=12;fontFamily=Helvetica;html=1;whiteSpace=wrap;" parent="1" vertex="1">
          <mxGeometry x="460" y="40" width="160" height="200" as="geometry" />
        </mxCell>
        <mxCell id="ZpY40fTTv7qmMkslIbnW-7" value="&lt;p style=&quot;margin:0px;margin-top:4px;text-align:center;&quot;&gt;&lt;b&gt;Employee&lt;/b&gt;&lt;/p&gt;&lt;hr size=&quot;1&quot;&gt;&lt;p style=&quot;margin:0px;margin-left:4px;&quot;&gt;- salary: int&lt;/p&gt;&lt;p style=&quot;margin:0px;margin-left:4px;&quot;&gt;- placement: String&lt;/p&gt;&lt;hr size=&quot;1&quot;&gt;&lt;p style=&quot;margin:0px;margin-left:4px;&quot;&gt;+ manageTransaction(): void&lt;/p&gt;" style="verticalAlign=top;align=left;overflow=fill;fontSize=12;fontFamily=Helvetica;html=1;whiteSpace=wrap;" parent="1" vertex="1">
          <mxGeometry x="20" y="240" width="160" height="100" as="geometry" />
        </mxCell>
        <mxCell id="ZpY40fTTv7qmMkslIbnW-8" value="&lt;p style=&quot;margin:0px;margin-top:4px;text-align:center;&quot;&gt;&lt;b&gt;OutletManagement&lt;/b&gt;&lt;/p&gt;&lt;hr size=&quot;1&quot;&gt;&lt;p style=&quot;margin:0px;margin-left:4px;&quot;&gt;- outlets: ArrayList&amp;lt;Outlet&amp;gt;&lt;/p&gt;&lt;hr size=&quot;1&quot;&gt;&lt;p style=&quot;border-color: var(--border-color); margin: 0px 0px 0px 4px;&quot;&gt;+ addOutlet(outlet: Outlet): void&lt;/p&gt;&lt;p style=&quot;border-color: var(--border-color); margin: 0px 0px 0px 4px;&quot;&gt;+ editOutlet(outlet: Outlet): void&lt;br style=&quot;border-color: var(--border-color);&quot;&gt;&lt;/p&gt;&lt;p style=&quot;border-color: var(--border-color); margin: 0px 0px 0px 4px;&quot;&gt;+ delOutlet(outlet: Outlet): void&lt;/p&gt;" style="verticalAlign=top;align=left;overflow=fill;fontSize=12;fontFamily=Helvetica;html=1;whiteSpace=wrap;" parent="1" vertex="1">
          <mxGeometry x="690" y="300" width="140" height="170" as="geometry" />
        </mxCell>
        <mxCell id="ZpY40fTTv7qmMkslIbnW-9" value="&lt;p style=&quot;margin:0px;margin-top:4px;text-align:center;&quot;&gt;&lt;b&gt;EmployeManagement&lt;/b&gt;&lt;/p&gt;&lt;hr size=&quot;1&quot;&gt;&lt;p style=&quot;margin:0px;margin-left:4px;&quot;&gt;- employees: ArrayList&amp;lt;Employee&amp;gt;&lt;/p&gt;&lt;hr size=&quot;1&quot;&gt;&lt;p style=&quot;margin:0px;margin-left:4px;&quot;&gt;+ addEmployee( employee: Employee): void&lt;br&gt;+ editEmployee(employee: Employee): void              |&lt;br&gt;+ delEmployee(employee: Employee): void &lt;br&gt;&lt;/p&gt;" style="verticalAlign=top;align=left;overflow=fill;fontSize=12;fontFamily=Helvetica;html=1;whiteSpace=wrap;" parent="1" vertex="1">
          <mxGeometry x="40" y="400" width="160" height="170" as="geometry" />
        </mxCell>
        <mxCell id="ZpY40fTTv7qmMkslIbnW-10" value="&lt;p style=&quot;margin:0px;margin-top:4px;text-align:center;&quot;&gt;&lt;b&gt;Outlet&lt;/b&gt;&lt;/p&gt;&lt;hr size=&quot;1&quot;&gt;&lt;p style=&quot;margin:0px;margin-left:4px;&quot;&gt;- idOutlet: String&lt;/p&gt;&lt;p style=&quot;margin:0px;margin-left:4px;&quot;&gt;- outletAddress: String&lt;/p&gt;&lt;p style=&quot;margin:0px;margin-left:4px;&quot;&gt;- contact: String[]&lt;/p&gt;&lt;p style=&quot;margin:0px;margin-left:4px;&quot;&gt;- products: ArrayList&amp;lt;Product&amp;gt;&lt;/p&gt;&lt;p style=&quot;margin:0px;margin-left:4px;&quot;&gt;- employees:&amp;nbsp;&lt;/p&gt;ArrayList&amp;lt;Employee&amp;gt;&lt;hr size=&quot;1&quot;&gt;&lt;p style=&quot;margin:0px;margin-left:4px;&quot;&gt;+ setter&lt;/p&gt;&lt;p style=&quot;margin:0px;margin-left:4px;&quot;&gt;+ getter&lt;/p&gt;" style="verticalAlign=top;align=left;overflow=fill;fontSize=12;fontFamily=Helvetica;html=1;whiteSpace=wrap;" parent="1" vertex="1">
          <mxGeometry x="690" y="530" width="140" height="190" as="geometry" />
        </mxCell>
        <mxCell id="ZpY40fTTv7qmMkslIbnW-11" value="&lt;p style=&quot;margin:0px;margin-top:4px;text-align:center;&quot;&gt;&lt;b&gt;Report&lt;/b&gt;&lt;/p&gt;&lt;hr size=&quot;1&quot;&gt;&lt;p style=&quot;margin:0px;margin-left:4px;&quot;&gt;+ transactions: ArrayList&amp;lt;Transaction&amp;gt;&lt;/p&gt;&lt;hr size=&quot;1&quot;&gt;&lt;p style=&quot;margin:0px;margin-left:4px;&quot;&gt;+ generateRepote(): void&lt;/p&gt;" style="verticalAlign=top;align=left;overflow=fill;fontSize=12;fontFamily=Helvetica;html=1;whiteSpace=wrap;" parent="1" vertex="1">
          <mxGeometry x="690" y="150" width="140" height="100" as="geometry" />
        </mxCell>
        <mxCell id="ZpY40fTTv7qmMkslIbnW-13" value="" style="endArrow=none;html=1;edgeStyle=orthogonalEdgeStyle;rounded=0;exitX=1;exitY=0.355;exitDx=0;exitDy=0;exitPerimeter=0;" parent="1" source="ZpY40fTTv7qmMkslIbnW-2" edge="1">
          <mxGeometry relative="1" as="geometry">
            <mxPoint x="200" y="89.63999999999999" as="sourcePoint" />
            <mxPoint x="240" y="90" as="targetPoint" />
          </mxGeometry>
        </mxCell>
        <mxCell id="ZpY40fTTv7qmMkslIbnW-16" value="" style="endArrow=block;endSize=16;endFill=0;html=1;rounded=0;entryX=1;entryY=0.5;entryDx=0;entryDy=0;exitX=0;exitY=0.426;exitDx=0;exitDy=0;exitPerimeter=0;" parent="1" source="ZpY40fTTv7qmMkslIbnW-6" target="ZpY40fTTv7qmMkslIbnW-1" edge="1">
          <mxGeometry width="160" relative="1" as="geometry">
            <mxPoint x="390" y="230" as="sourcePoint" />
            <mxPoint x="550" y="230" as="targetPoint" />
            <Array as="points" />
          </mxGeometry>
        </mxCell>
        <mxCell id="ZpY40fTTv7qmMkslIbnW-17" value="" style="endArrow=block;endSize=16;endFill=0;html=1;rounded=0;entryX=0;entryY=0.5;entryDx=0;entryDy=0;exitX=1;exitY=0.5;exitDx=0;exitDy=0;" parent="1" source="ZpY40fTTv7qmMkslIbnW-7" target="ZpY40fTTv7qmMkslIbnW-1" edge="1">
          <mxGeometry width="160" relative="1" as="geometry">
            <mxPoint x="470" y="105" as="sourcePoint" />
            <mxPoint x="410" y="104" as="targetPoint" />
            <Array as="points">
              <mxPoint x="210" y="290" />
              <mxPoint x="210" y="125" />
            </Array>
          </mxGeometry>
        </mxCell>
        <mxCell id="ZpY40fTTv7qmMkslIbnW-18" value="" style="endArrow=diamondThin;endFill=0;endSize=24;html=1;rounded=0;entryX=0.874;entryY=1.003;entryDx=0;entryDy=0;exitX=0;exitY=0.5;exitDx=0;exitDy=0;entryPerimeter=0;" parent="1" source="ZpY40fTTv7qmMkslIbnW-11" target="ZpY40fTTv7qmMkslIbnW-6" edge="1">
          <mxGeometry width="160" relative="1" as="geometry">
            <mxPoint x="660" y="200" as="sourcePoint" />
            <mxPoint x="820" y="200" as="targetPoint" />
            <Array as="points">
              <mxPoint x="660" y="200" />
              <mxPoint x="660" y="280" />
              <mxPoint x="600" y="280" />
            </Array>
          </mxGeometry>
        </mxCell>
        <mxCell id="ZpY40fTTv7qmMkslIbnW-19" value="" style="endArrow=diamondThin;endFill=0;endSize=24;html=1;rounded=0;entryX=0.129;entryY=1;entryDx=0;entryDy=0;entryPerimeter=0;" parent="1" target="ZpY40fTTv7qmMkslIbnW-6" edge="1">
          <mxGeometry width="160" relative="1" as="geometry">
            <mxPoint x="200" y="490" as="sourcePoint" />
            <mxPoint x="350" y="490" as="targetPoint" />
            <Array as="points">
              <mxPoint x="230" y="490" />
              <mxPoint x="230" y="280" />
              <mxPoint x="480" y="280" />
            </Array>
          </mxGeometry>
        </mxCell>
        <mxCell id="ZpY40fTTv7qmMkslIbnW-20" value="" style="endArrow=diamondThin;endFill=0;endSize=24;html=1;rounded=0;entryX=0.309;entryY=1.001;entryDx=0;entryDy=0;exitX=0.5;exitY=0;exitDx=0;exitDy=0;entryPerimeter=0;" parent="1" source="ZpY40fTTv7qmMkslIbnW-5" target="ZpY40fTTv7qmMkslIbnW-6" edge="1">
          <mxGeometry width="160" relative="1" as="geometry">
            <mxPoint x="340" y="320" as="sourcePoint" />
            <mxPoint x="500" y="320" as="targetPoint" />
            <Array as="points">
              <mxPoint x="330" y="300" />
              <mxPoint x="510" y="300" />
            </Array>
          </mxGeometry>
        </mxCell>
        <mxCell id="ZpY40fTTv7qmMkslIbnW-21" value="" style="endArrow=diamondThin;endFill=0;endSize=24;html=1;rounded=0;" parent="1" source="ZpY40fTTv7qmMkslIbnW-3" edge="1">
          <mxGeometry width="160" relative="1" as="geometry">
            <mxPoint x="540" y="180" as="sourcePoint" />
            <mxPoint x="540" y="240" as="targetPoint" />
          </mxGeometry>
        </mxCell>
        <mxCell id="ZpY40fTTv7qmMkslIbnW-22" value="" style="endArrow=diamondThin;endFill=0;endSize=24;html=1;rounded=0;exitX=-0.001;exitY=0.47;exitDx=0;exitDy=0;exitPerimeter=0;" parent="1" source="ZpY40fTTv7qmMkslIbnW-8" edge="1">
          <mxGeometry width="160" relative="1" as="geometry">
            <mxPoint x="680" y="240" as="sourcePoint" />
            <mxPoint x="570" y="240" as="targetPoint" />
            <Array as="points">
              <mxPoint x="650" y="380" />
              <mxPoint x="650" y="300" />
              <mxPoint x="570" y="300" />
            </Array>
          </mxGeometry>
        </mxCell>
        <mxCell id="ZpY40fTTv7qmMkslIbnW-23" value="" style="endArrow=diamondThin;endFill=1;endSize=24;html=1;rounded=0;exitX=0.5;exitY=1;exitDx=0;exitDy=0;entryX=0.5;entryY=0;entryDx=0;entryDy=0;" parent="1" source="ZpY40fTTv7qmMkslIbnW-7" target="ZpY40fTTv7qmMkslIbnW-9" edge="1">
          <mxGeometry width="160" relative="1" as="geometry">
            <mxPoint x="50" y="620" as="sourcePoint" />
            <mxPoint x="210" y="620" as="targetPoint" />
            <Array as="points">
              <mxPoint x="100" y="370" />
              <mxPoint x="120" y="370" />
            </Array>
          </mxGeometry>
        </mxCell>
        <mxCell id="ZpY40fTTv7qmMkslIbnW-24" value="" style="endArrow=diamondThin;endFill=1;endSize=24;html=1;rounded=0;entryX=0.5;entryY=1;entryDx=0;entryDy=0;exitX=0.5;exitY=0;exitDx=0;exitDy=0;" parent="1" source="ZpY40fTTv7qmMkslIbnW-4" target="ZpY40fTTv7qmMkslIbnW-5" edge="1">
          <mxGeometry width="160" relative="1" as="geometry">
            <mxPoint x="480" y="630" as="sourcePoint" />
            <mxPoint x="640" y="630" as="targetPoint" />
          </mxGeometry>
        </mxCell>
        <mxCell id="ZpY40fTTv7qmMkslIbnW-25" value="" style="endArrow=diamondThin;endFill=1;endSize=24;html=1;rounded=0;entryX=0.5;entryY=1;entryDx=0;entryDy=0;exitX=0.5;exitY=0;exitDx=0;exitDy=0;" parent="1" source="ZpY40fTTv7qmMkslIbnW-10" target="ZpY40fTTv7qmMkslIbnW-8" edge="1">
          <mxGeometry width="160" relative="1" as="geometry">
            <mxPoint x="340" y="620" as="sourcePoint" />
            <mxPoint x="340" y="580" as="targetPoint" />
          </mxGeometry>
        </mxCell>
      </root>
    </mxGraphModel>
  </diagram>
</mxfile>
